<svg xmlns="http://www.w3.org/2000/svg" viewBox="0 0 1200 760"><rect width="1200" height="760" rx="28" fill="#07150d"/><circle cx="980" cy="120" r="220" fill="#00ff41" opacity=".12"/><text x="70" y="100" fill="#9db89d" font-family="monospace" font-size="24">OPERATIONS OVERVIEW</text><text x="70" y="165" fill="#e1f5e1" font-family="Arial" font-size="56" font-weight="700">Venue status</text><g fill="#0d2417" stroke="#2a6b3c"><rect x="70" y="230" width="300" height="145" rx="18"/><rect x="410" y="230" width="300" height="145" rx="18"/><rect x="750" y="230" width="300" height="145" rx="18"/></g><g fill="#6d8a6d" font-family="monospace" font-size="20"><text x="100" y="275">ACTIVE ZONES</text><text x="440" y="275">OPEN ALERTS</text><text x="780" y="275">SYSTEM HEALTH</text></g><g fill="#e1f5e1" font-family="Arial" font-size="58" font-weight="700"><text x="100" y="345">24</text><text x="440" y="345">06</text><text x="780" y="345">98%</text></g><rect x="70" y="430" width="980" height="230" rx="18" fill="#0d2417" stroke="#2a6b3c"/><polyline points="110,600 210,560 300,580 390,500 480,530 580,460 680,490 780,425 900,455 1010,395" fill="none" stroke="#00ff41" stroke-width="8"/><text x="110" y="480" fill="#e1f5e1" font-family="Arial" font-size="27">Crowd activity / last 60 minutes</text></svg>
